<svg xmlns="http://www.w3.org/2000/svg" width="159.557" height="26.454" viewBox="0 0 159.557 26.454">
  <g id="Gruppe_2562" data-name="Gruppe 2562" transform="translate(143.903)">
    <path id="Pfad_28347" data-name="Pfad 28347" d="M-106.783,14.07V9.7h3.89V6.2h-3.89V1.673h-4.645v1.27c0,.077,0,.133,0,.206V9.7h0v6.447a4.3,4.3,0,0,0,.493,2.2A3.24,3.24,0,0,0-109.65,19.6a5.337,5.337,0,0,0,1.711.551,12.135,12.135,0,0,0,1.763.135,6.028,6.028,0,0,0,1.232-.111,4.73,4.73,0,0,0,.818-.227v-3.4a4.549,4.549,0,0,1-.6.169,3.87,3.87,0,0,1-.855.09q-.817,0-1.012-.543a4.131,4.131,0,0,1-.193-1.364V14.07Z" transform="translate(9.344 0.481)" fill="#0070b4"/>
    <circle id="Ellipse_69" data-name="Ellipse 69" cx="2.311" cy="2.311" r="2.311" transform="translate(-107.833 6.117)" fill="#0070b4"/>
    <circle id="Ellipse_70" data-name="Ellipse 70" cx="2.311" cy="2.311" r="2.311" transform="translate(-131.254 0.125)" fill="#0b1734"/>
    <path id="Pfad_28348" data-name="Pfad 28348" d="M-141.085,20.47V10.189H-143.9v-3.5h2.818V6.01a6.853,6.853,0,0,1,.428-2.57,4.858,4.858,0,0,1,1.142-1.726A5.425,5.425,0,0,1-137.939.663a7.2,7.2,0,0,1,1.753-.519A10.479,10.479,0,0,1-134.531,0a6.642,6.642,0,0,1,1.369.1,4.866,4.866,0,0,1,.59.17V3.8a5.051,5.051,0,0,0-.558-.122A5.093,5.093,0,0,0-134,3.608a3.543,3.543,0,0,0-1.2.175,1.664,1.664,0,0,0-.752.514,2.122,2.122,0,0,0-.4.8,3.974,3.974,0,0,0-.124,1.031v.558h3.6v3.5h-3.6V20.47Zm9.851,0V6.685h4.582V20.47Z" fill="#00064e"/>
    <path id="Pfad_28349" data-name="Pfad 28349" d="M-114.716,7.628a4.075,4.075,0,0,0-1.57-1.947,5.032,5.032,0,0,0-2.8-.7,5.89,5.89,0,0,0-2.972.755A5.434,5.434,0,0,0-123.862,7.4V5.252h-4.62V19.036h4.62v-7.06a4.172,4.172,0,0,1,.3-1.648,2.319,2.319,0,0,1,.9-1.084A2.667,2.667,0,0,1-121.2,8.86a2.3,2.3,0,0,1,1.511.422,2.088,2.088,0,0,1,.676,1.1,5.841,5.841,0,0,1,.175,1.46v7.191h4.62V10.5A7.656,7.656,0,0,0-114.716,7.628Z" transform="translate(4.438 1.433)" fill="#00064e"/>
    <path id="Pfad_28350" data-name="Pfad 28350" d="M-96.071,19.349a8.505,8.505,0,0,1-4.018-.914A6.835,6.835,0,0,1-102.8,15.9a7.111,7.111,0,0,1-.979-3.75,7.061,7.061,0,0,1,.979-3.733,6.79,6.79,0,0,1,2.713-2.524,8.534,8.534,0,0,1,4.018-.909,8.538,8.538,0,0,1,4.018.909,6.786,6.786,0,0,1,2.712,2.524,7.05,7.05,0,0,1,.98,3.733,7.1,7.1,0,0,1-.98,3.75,6.831,6.831,0,0,1-2.712,2.539A8.509,8.509,0,0,1-96.071,19.349Zm0-3.57a2.811,2.811,0,0,0,1.608-.455,2.919,2.919,0,0,0,1.039-1.266,4.617,4.617,0,0,0,.364-1.9,4.613,4.613,0,0,0-.364-1.908A2.842,2.842,0,0,0-94.463,9a2.874,2.874,0,0,0-1.608-.44,2.889,2.889,0,0,0-1.6.44,2.819,2.819,0,0,0-1.044,1.247,4.612,4.612,0,0,0-.364,1.908,4.617,4.617,0,0,0,.364,1.9,2.894,2.894,0,0,0,1.044,1.266A2.826,2.826,0,0,0-96.071,15.779Z" transform="translate(11.546 1.433)" fill="#00064e"/>
    <path id="Pfad_28351" data-name="Pfad 28351" d="M-77.764,17.649a9.765,9.765,0,0,0-2.317-.507l-4.842-.5a3.175,3.175,0,0,1-1.311-.345.681.681,0,0,1-.364-.564.662.662,0,0,1,.24-.491,10.77,10.77,0,0,0,3.084.413,7.554,7.554,0,0,0,3.375-.663,5.638,5.638,0,0,0,2.135-1.817,9.493,9.493,0,0,0,1.279-2.661l1.635-5.258H-78.9l-.143,1.54a2.9,2.9,0,0,0-.194-.228,5.143,5.143,0,0,0-1.894-1.156,7.33,7.33,0,0,0-2.533-.429,8.246,8.246,0,0,0-3.393.676,5.775,5.775,0,0,0-2.389,1.889,4.75,4.75,0,0,0-.876,2.86,4.619,4.619,0,0,0,.863,2.812,4.864,4.864,0,0,0,.88.9c-.1.063-.2.118-.308.2a4.376,4.376,0,0,0-.986,1.019,2.317,2.317,0,0,0-.435,1.369,2.17,2.17,0,0,0,.986,1.907,5.365,5.365,0,0,0,2.466.846l5.218.582a5.127,5.127,0,0,1,1.162.247.677.677,0,0,1,.514.676.762.762,0,0,1-.416.622A3.255,3.255,0,0,1-81.541,22a9.455,9.455,0,0,1-1.759.144,8.353,8.353,0,0,1-2.427-.306q-.987-.305-.986-.876a1.233,1.233,0,0,1,.058-.41.82.82,0,0,1,.111-.225l-4.167-.6a2.568,2.568,0,0,0-.278.655,2.972,2.972,0,0,0-.111.837,3.111,3.111,0,0,0,2.032,2.765A12.631,12.631,0,0,0-83.4,25.022a15.083,15.083,0,0,0,4.161-.5,5.771,5.771,0,0,0,2.654-1.472,3.33,3.33,0,0,0,.922-2.377,3.117,3.117,0,0,0-.551-1.939A3.343,3.343,0,0,0-77.764,17.649Zm-7.711-8.373a2.068,2.068,0,0,1,.9-.689A3.356,3.356,0,0,1-83.3,8.356a3.331,3.331,0,0,1,1.285.232,2.058,2.058,0,0,1,.883.683,1.8,1.8,0,0,1,.323,1.084,1.822,1.822,0,0,1-.323,1.1,2.039,2.039,0,0,1-.883.683,3.33,3.33,0,0,1-1.285.233,3.445,3.445,0,0,1-1.279-.227,2.027,2.027,0,0,1-.9-.676,1.772,1.772,0,0,1-.33-1.084A1.821,1.821,0,0,1-85.475,9.276Z" transform="translate(15.194 1.433)" fill="#00064e"/>
    <path id="Pfad_28352" data-name="Pfad 28352" d="M-63.62,8.471a6.447,6.447,0,0,0-2.662-2.578,8.666,8.666,0,0,0-4.1-.914,8.7,8.7,0,0,0-4.042.9A6.675,6.675,0,0,0-77.145,8.4a7.169,7.169,0,0,0-.974,3.772,7.234,7.234,0,0,0,.954,3.738,6.632,6.632,0,0,0,2.694,2.538,8.687,8.687,0,0,0,4.087.914,11.2,11.2,0,0,0,3.07-.389A7.663,7.663,0,0,0-65,17.915a5.563,5.563,0,0,0,1.5-1.505,3.747,3.747,0,0,0,.623-1.733h-4.57a1.085,1.085,0,0,1-.2.448,1.523,1.523,0,0,1-.48.415,2.921,2.921,0,0,1-.831.306,5.63,5.63,0,0,1-1.226.116,3.541,3.541,0,0,1-1.9-.461,2.744,2.744,0,0,1-1.1-1.337,4.722,4.722,0,0,1-.193-.7h10.637c.017-.112.03-.261.039-.455s.013-.4.013-.636A7.837,7.837,0,0,0-63.62,8.471Zm-8.457.291a3.358,3.358,0,0,1,1.759-.435,3.327,3.327,0,0,1,1.7.385,2.418,2.418,0,0,1,.948.959,2.6,2.6,0,0,1,.264.9h-5.924a4.229,4.229,0,0,1,.162-.538A2.732,2.732,0,0,1-72.077,8.762Z" transform="translate(18.93 1.433)" fill="#00064e"/>
    <path id="Pfad_28353" data-name="Pfad 28353" d="M-56.992,20.3a12.149,12.149,0,0,1-1.766-.137,5.353,5.353,0,0,1-1.714-.552,3.231,3.231,0,0,1-1.285-1.245,4.3,4.3,0,0,1-.493-2.206V9.707h-3.128V6.2h.48a10.18,10.18,0,0,0,1.428-.079,1.211,1.211,0,0,0,.792-.389,1.893,1.893,0,0,0,.344-.967,15.061,15.061,0,0,0,.084-1.823V1.673H-57.6V6.2h3.894v3.5H-57.6v5.206a4.086,4.086,0,0,0,.194,1.362q.2.545,1.012.545a3.882,3.882,0,0,0,.856-.09,4.247,4.247,0,0,0,.6-.169v3.4a4.632,4.632,0,0,1-.818.225A6.039,6.039,0,0,1-56.992,20.3Z" transform="translate(22.596 0.481)" fill="#00064e"/>
    <path id="Pfad_28354" data-name="Pfad 28354" d="M-41.471,7.859a4.572,4.572,0,0,0-3.758-1.487,5.966,5.966,0,0,0-3.012.742A5.116,5.116,0,0,0-49.9,8.618V.141h-4.62V20.428h4.62V13.265a4.115,4.115,0,0,1,.286-1.61,2.188,2.188,0,0,1,.876-1.039,2.835,2.835,0,0,1,1.5-.363,2,2,0,0,1,1.881.818,4.482,4.482,0,0,1,.48,2.259v7.1h4.62V11.994A6.365,6.365,0,0,0-41.471,7.859Z" transform="translate(25.72 0.041)" fill="#00064e"/>
    <path id="Pfad_28355" data-name="Pfad 28355" d="M-27.344,8.471A6.451,6.451,0,0,0-30,5.893a8.669,8.669,0,0,0-4.1-.914,8.7,8.7,0,0,0-4.044.9A6.691,6.691,0,0,0-40.87,8.4a7.18,7.18,0,0,0-.972,3.772,7.245,7.245,0,0,0,.953,3.738A6.64,6.64,0,0,0-38.2,18.448a8.689,8.689,0,0,0,4.089.914,11.2,11.2,0,0,0,3.069-.389,7.648,7.648,0,0,0,2.312-1.059,5.563,5.563,0,0,0,1.5-1.505,3.747,3.747,0,0,0,.623-1.733h-4.569a1.12,1.12,0,0,1-.2.448,1.553,1.553,0,0,1-.48.415,2.921,2.921,0,0,1-.831.306,5.642,5.642,0,0,1-1.227.116,3.537,3.537,0,0,1-1.894-.461,2.737,2.737,0,0,1-1.1-1.337,4.425,4.425,0,0,1-.193-.7h10.636a4.305,4.305,0,0,0,.039-.455c.009-.189.013-.4.013-.636A7.837,7.837,0,0,0-27.344,8.471Zm-8.455.291a3.352,3.352,0,0,1,1.759-.435,3.325,3.325,0,0,1,1.7.385,2.41,2.41,0,0,1,.948.959,2.544,2.544,0,0,1,.264.9h-5.924a4.23,4.23,0,0,1,.162-.538A2.735,2.735,0,0,1-35.8,8.762Z" transform="translate(29.369 1.433)" fill="#00064e"/>
    <path id="Pfad_28356" data-name="Pfad 28356" d="M-18.219,5.1a5.368,5.368,0,0,0-1.29-.118,5.054,5.054,0,0,0-1.863.326,4.269,4.269,0,0,0-1.441.927,4.731,4.731,0,0,0-.707.926V5.252h-4.633V19.036h4.633V12.872a5.212,5.212,0,0,1,.188-1.375,3.667,3.667,0,0,1,.61-1.247,2.953,2.953,0,0,1,1.129-.889,4.041,4.041,0,0,1,1.733-.332,3.134,3.134,0,0,1,1,.138,3.949,3.949,0,0,1,.519.2l.688-4.089A2.9,2.9,0,0,0-18.219,5.1Z" transform="translate(33.308 1.433)" fill="#00064e"/>
  </g>
</svg>
